<mxfile host="app.diagrams.net" modified="2023-11-10T19:05:46.255Z" agent="Mozilla/5.0 (Windows NT 10.0; Win64; x64) AppleWebKit/537.36 (KHTML, like Gecko) Chrome/119.0.0.0 Safari/537.36" etag="O752mxhIO-ob57bl2AkB" version="22.1.0" type="github">
  <diagram name="PÃ¡gina-1" id="JL0s9YFxojF8kScrT-FA">
    <mxGraphModel dx="1434" dy="750" grid="1" gridSize="10" guides="1" tooltips="1" connect="1" arrows="1" fold="1" page="1" pageScale="1" pageWidth="827" pageHeight="1169" math="0" shadow="0">
      <root>
        <mxCell id="0" />
        <mxCell id="1" parent="0" />
        <mxCell id="byS9DmiykSNvir3lJ_Dd-1" value="&lt;h3&gt;NUEVOS NEGOCIOS&lt;/h3&gt;" style="fontStyle=0;verticalAlign=top;align=center;spacingTop=-2;fillColor=none;rounded=0;whiteSpace=wrap;html=1;strokeWidth=1;dashed=0;container=1;collapsible=0;expand=0;recursiveResize=0;labelBackgroundColor=none;" parent="1" vertex="1">
          <mxGeometry x="24" y="40" width="780" height="480" as="geometry" />
        </mxCell>
        <mxCell id="byS9DmiykSNvir3lJ_Dd-14" value="&lt;h2&gt;USUARIO&lt;/h2&gt;" style="image;aspect=fixed;perimeter=ellipsePerimeter;html=1;align=center;shadow=0;dashed=0;labelBackgroundColor=none;fontSize=12;spacingTop=3;image=img/lib/ibm/users/user.svg;" parent="byS9DmiykSNvir3lJ_Dd-1" vertex="1">
          <mxGeometry x="45" y="240" width="60" height="60" as="geometry" />
        </mxCell>
        <mxCell id="byS9DmiykSNvir3lJ_Dd-15" style="edgeStyle=orthogonalEdgeStyle;rounded=0;orthogonalLoop=1;jettySize=auto;html=1;labelBackgroundColor=none;fontColor=default;" parent="byS9DmiykSNvir3lJ_Dd-1" source="byS9DmiykSNvir3lJ_Dd-16" target="byS9DmiykSNvir3lJ_Dd-24" edge="1">
          <mxGeometry relative="1" as="geometry" />
        </mxCell>
        <mxCell id="byS9DmiykSNvir3lJ_Dd-33" style="edgeStyle=orthogonalEdgeStyle;rounded=0;orthogonalLoop=1;jettySize=auto;html=1;entryX=0.5;entryY=1;entryDx=0;entryDy=0;labelBackgroundColor=none;fontColor=default;" parent="byS9DmiykSNvir3lJ_Dd-1" source="byS9DmiykSNvir3lJ_Dd-16" target="byS9DmiykSNvir3lJ_Dd-30" edge="1">
          <mxGeometry relative="1" as="geometry" />
        </mxCell>
        <mxCell id="byS9DmiykSNvir3lJ_Dd-16" value="&lt;h2&gt;PORTAL MEDIPIEL&lt;/h2&gt;" style="image;aspect=fixed;perimeter=ellipsePerimeter;html=1;align=center;shadow=0;dashed=0;labelBackgroundColor=none;fontSize=12;spacingTop=3;image=data:image/png,iVBORw0KGgoAAAANSUhEUgAAAJQAAACSCAYAAACjZePJAAAAAXNSR0IArs4c6QAAAARnQU1BAACxjwv8YQUAAAAJcEhZcwAALiMAAC4jAXilP3YAACxMSURBVHhe7Z0JfBNl+sczM0loS7lRVORQXBRFBYEk5fJWQLwVrxXv+z5QhLYhbUHAa/3jeq7X4rHi7S7ggYJcTdIirIJ4rAegy6GAIG1pk5n5f5/JlAVBTNskTUt/n89k5n3nzcw77/t7n+d5b0cTmtCEJjShCU1oQhOa0IQmNKEJTWhCE5rQhPTH2AULuuSVlAywnXs8FPu8R2CaaWrLwuHehml21KPRFRMGDlxi36oV7i4tbdVM17/ksoOpqmcU9uv3duxODP7Fi7tuWbfupwdOPrnM9mr0UO1zo0deKHTmZ+Hw96bDUaIoyltOl2txfjA4Z0Io1M4OUmNAptsdptmWY71iGGfZ3hb8xcVdjcrKb7JatVrvD4f/bHs3ejRKQvkXLvTkhcP9bKdDVBKi+FWO702ns6+uKJ0h1r0ORTl6q8PxrB1sG/yzZzvzQ6Gx/pKSYbbXTrhn7ty9ON3Gc17keNc0zZM4tkl8Q1FOgrgq73Dhf6T4yX2eO5XjNQh3jBWwkaFREspQ1b8iMd4+d9o0TdyKad4s56iqjijs02fReI9nVaHXOwav6Ryn+hcsOETuV8PIzvZyKjJ0fUrMZ2e43O7RnLJURbkX4nzMsc+44uLesbu8U1FOgEGbOFY6DMPyQ1JdyEmk1dmoyJssz0aGBk+ovGCwD6rrXkr9JH9paWfxIzPn8LNv906dBonbNIzuZOy6Cf36rRb3dnjZ+nW5BltnG/srSpjwRSTOHbbXDvAHg/ubinI9Emcezs2KpslZiDzEum+aKveOIw5ziAsCDL/S0iwuJnJ8K277vxa4dwjS8EbU8rVI14Ns7waJhkkoVIfYRBzzyLBSMulafO9CoszzL12aDYFek2Cqqp4jZ8Js4qftTTNmNBN3NcjUlXI2DKO95WHjmr59IwU+X17A53vL9toBkCkP3ZbBc4/h3auNaPRT8cdtEcpRWtqL63Y8fxYvcYqXGY2OQlJ2IG6zLLdhfChnCsM9/H8Z7ik88zFD077MD4efFQLK/YaGBkmo3GDwPBL/DY4IR79Cn68NmVzIdWdHefkZuMMEW0EGniXSAsIswN2sbdu2p1oP+B96yA+Zv8JyxYGxJSXdIMrlsPDtiGHso6hqH5u48yBXzkRqfhD7BAmrOp2ziJfGsT/37uL8JCqyE/9fU5STsxTpejovn0DQz5FuRyjl5ZncuwoSXmBEIs/LMxoaGiShNE0TwuhkkhnwekvFD5tpuZzJkEwyyeTidc77OsLhgZrL9QT+5VgyD6NaPNxTMIoHQsBxXK+uiETekf/GA1XXO0PASsPpzLs3J2dtoF+/TwIezzs8/wWe5ywzjMHcP4G4/RDo2/cL/iISagRxieq6fi/+ol4/lDhCxnFcV0LI04v69fsscOyxW4t8vmcI8zj3zhHycr9BIe0JVRAOH0xJvhMbKQ8VlyN+ZOC3EOEdMvA47g3intg6j5ERnyOVXpEw3HtVzrrDcS4ZuxIj+GKcrVAtIcJX4p6HxNikRKPD7hs48FcJGw+QfrN5fwshgO1lATH4Gs+eSoIuI277cfzTumGaGgRTiddEl6Z147o5UmqW2GHc6wWx3ra+Z0dYbqdpHiDn8cXFHfj29/KLi6+CuHxa+iJtCWVV3YPBh1Ern5MJ9+FVQEouRN39VRIV8jwk4bg3l4y5h8sp2ZGID7tns/iP83pDhFvFf87ivlLk8byBdDkQ9SfEugmJNuiLFSt6BmrRuMk7ef2OCPTvv6EwJ2ekkKMsI8OrVlRYNUvCfkQ8SpUOHR6CcMeLX1RRPoxQK5Rrh64vtc7bwzQ9ctKrqlbJGREm9tVJFIJH/aHQbI7u4p+OSFu2I0UeItdu5PImtbz8OYfb3dXUtGfIoRwyaBSS4n7ClHJ9FKqs23if77vYP/+HvHD4TiTDn5evWNHn1REjEFb1i9xQ6EJK8PEFXu8Vo+fNa+NyudZCuLdwj7CDOHKLi/+EChTp9xX+R/ANp/IN70CydxWn8zbss6fItD6kwzUFHs/U2L/SB2lJKP/ixa2Nysp1VNOeK/R4rra9HZIJbrdbErtllqZ1Ktf14Vy/gIFcUJCT47cCNSBQICZBlFFcjjfc7r8rut6Vb3kUAnWjMJ2a3arV3LJNm5ahmvdFTR4s0k/a1np06TKN/51K5h2IRP4h9rT0QHqqPMMQw9dFAlsivxoTBw3aSEI/yGULyHRSR02bxvWPJPi1fr8/7e3B30LxeO7he8Qwv02NRL5CDb8PSTrhdzMSeHrZ5s0TkESdIA+a2pjqD4d7WpKWWiL+Lgqc1e6WTkiLTPCXlrZHHYyg5nWE5aGqK1FlOucTLfd2UE3TsnlI9HbSXkTC3gH53g0EAng1LAQUxYA4BZVOZ0eIdCo1u3OjqnoAfo9IBYQ0kMbTUkNVD+I7W0Oqf1MJkc7o6yDVl46sLKuGm06od5WHjTAUEf8il21ghAFhrkKMP4M6eB0/MagvLPD5Yi3aIK+4OJeEL4w6HP0m2E0GjRFUSIJI3j6U+H4Br3cJ7lG4J5BhE5DgDrfT+Xjuzi3/9Y56JRSlTYzuv3A8C5neIzJSm5FW6s5jg8EDqG8vooQ2p3QWIq1moxKkZTqfBH1FalTWQxopKFB3850bsA2fErekFZJ4SlTXvRP695d2uJ3Afy7hdJGiaVdKU0nMN7WoN5WHpJkMUR4ikW5CxF9V5PNJd8lHlMKNcl9qbZBLeuyl6l8ImebjPRZpNlnduvVyCdOYQQ1vUjWZBKSD1W3kUtXWlsdvAJnO5fQ0BfAEIxqdnxsOHxy7k1rUnw2lKGeLsQmBPhcnNtRw/M6BPKswPq+m+txDWsExXA/RDWMQZulJitu9n9XHduyxaLw9CxCFpLE6oK0Ctz38waAMnXmBY6OuKB7I9wUFb259kMqKZH3AHwr1NUzzY0i0lUg8giobQ6r9F/feuDMkDH7zMx2OM8Z4veutP+3B8C9atJ9ZVXWN0qLF+EDPnlW2t5DJZzgcs0i3Zhz9Cz2eEmtkg64vhWCrkP5H20FTgpQSSrpJVFXtg23wPob350iisyCVDHxTKVU3BDyeRyUx9Gh0GH4iwrtGq6qG3zt48E+xJzRhe0gzglUoHY4s0sukAL60VtOu64PHD7EREO0hlAwETBlSRijIlA9pApbDNCOUngswrF/H/y78pYHvYyU7+6TtS18Tfh/+hQvbGpomjbx7U2E5B7tpE4X1bTJ0LWlbSZr25PwYhLo+9o/UICU2lF1DycdeGkUpOgvRvIXDGg3JB0/G72ncRxtbtjxh/SGNIG1k0q9oO9MGEZerGYVwA7blZTI5YnxOzhzVNKXt6htutydNn1ArKm4n7hl5oZA0w3yOmRHrP0wiki6hINPpnN6AUDdSc3nM8guFXiIxhkEmq8byRGmp60ddf5fL46gW70+1+EfxTwcQ/xcUVS0p8Hgetr0aDMaUlOzrNIw3ufRCsK0Y6ovbtW177C3du1fGQiQeyZdQinIaZJIhsQP9S5e6pfMTFg/Hb5s0khbvsmbNTuOj+6cVmUKh44nnhcS9wBpu0oAglR6nrpdw6SX+U4xIpCcaotvPGzY8HguRHCSdUGrz5rdAlPetjCkrm471PRP3oo3r1+fbQSw80KtXWaHXW2w76x1SOYD4QnqFc0tqUpZ0bQjIDwYvIL5ziXlHyPQtqu+u8QMHfoOtdT75cAnG/Pl20IQj6YTCyN6yv6bFRgU4HDKSsasZiVw7ZdiwpIndRICa5r2cto2YJCOG5waDad86L11TnF5EvW0hrc+iMLiMrKwnIZZy+HffydixzVyfFwudeKTEKBeVFvB4RjoM434yRlNdrunpPLsDu+lY4indQjuAzHl4bDjcyXamJxTlPI5PIZQHif8mak6GJl+MCvxgaZcuM7nXCkKJ4Z4UpIRQAjLILMjJGUUJuZ2Sc4ChqnPFprJvpw1kLBan58iEndKGb2itmeZzMvHB9ko7oN769fR4+gRycr4XN8TqLmqPS+ldGEzav0XkC+ReMkC6JRbSp8QHnEik54/zeqcKkexb25AXDp/Nhx6nzJhxUyAQQN2nD5BO/yDOu1cJhjGawjHJdqUtRs2f3yLD6VxDJs8r8PliU7xsUMloudrprHhShgAlEAklFMbgNRTjbbUIiOUv9PmSVhoSjfxw+DIi/Yzt/F3wXRFV0wYG+vXbZa9/uoD8uJj8+DuXo6Wz+erSUlcHXb+JTBd1LhMgKviW51Sn885A377l8p+6ImGi26pWK8p9iKOHiLB0Si6ipP/u2gDpBumMNg3jd6eebw++y2UYxssyB8/2SlccCGHKyY/n/bNnZ3eIRmdx/QB51IpSIW2BMjPnClPXt403qysSRiiMP5mF8q1aXn5XwOv9ikh/ToTduaHQFErKOxxvoE62jQ9PJzywcGGmqiivQJTmttcfgow5sDwafdp2piWU7Ox7VVU9nPxYQ01PKkRiQ01VTfMAVOBFHGLAn0bQ02QyROxfdUNCCCUNgJzOIXJPydASWcqGBBd3b15wI+dTOc7EL6U93/Fik6r+H/E73HbGD0U5m2q6NV0qHSH9ojKxgUqEdB1Jk8c8dcaMS6unmgmoCb5HwV+mGMa2mTd1QUIIReluDvOjojKQQk/J/DEi+Sklohs1Dqfi8bg6appbSoX9l7QBdpPYGVfazpoDNQ+pZLWW9MWcORkU5kxRcb+tBMnkDvKuBZe1XidreySEUJQCmYrdl0gHIZFkzlBINQOj9bsRiqIHFCVqTShIM6CODyOR69QCzve6+Zk2ug4LlyUbaI0tnJZjlmxbbqga5rBhY/kGWS8raHvVCXAgcbDYPmzYFURuIg9uC8nmwtjrZOyTHSRtYFepwyTmDmtD1RZ867uq13uKzGSxvdIKVo0P45yDKCovR01zf01RbsEtNtTXlZrWb1Lfvpu4rhPqTCh/KDREN80TiaSO6pu/WlVndlHV1lurqu7j4SMpvVuU8vK26TZsN672pprCNMeh1mNjvtIQqPeHieMONh+F/31dVS+VtbOkwVYvKflTkccjU7VqhboQSoH1T/7W/iCC/4FYl6AGF5Jpg3hBdxI5rWpD+aGQrB73fzFX4oCUMkiPYZahm6YYGwoN1hAAmCQRIxKZNX7AgIXWYD1VvZy4X0d+HUgeniXdNvZfaoRaEwoyXUAEXuKyQNH1qYbT2YYUvYDjBvyi6GtPkde7zAqcRrDHYMsShknp9iEzflY1rU99TWOqCdAuvUiLGyXfSA9Z4ExmZq9WTPMnhECt1gCtC6EWclrDi3dY/XZscfExqqp+wINfKvB6ZZ5Y2kBGX5rR6CcUhKR28CKpwr9s2DA4XUdUSKGiwMuKNgNjPlacR5Vv2vRYdqtWh3OvGIIdjpbZeWWYP0BdanlHweadZu7KUFROH3EkxNhNFKx1L6PRF5JNJgGZ4WnVtq2swZCWMBTlUhgkTR2vyvQ08nEDka6S9dSpQAW5txqCXRALXTPUmlBEYhMJN6x6pd0dYJoZRCitVgUxw+GxJNrJtjPpwI683jIL0hBq8+Y3K4axDxpkRGFOzgd4PY2aG40EP0QaqcnbtvjVavx5rQkFmZ7jNKBH585vbr90X25xsajAQTw4Yf1DdQUi/jg5xVypAxnzpGSS7UwbWC3o/ftvsJ0ONRq9n7hqpq4vx1SR/j4VwtVq7ala21APf/VVs/UbN/6DyzOQRqhdRdaTFMhCqDPRv6fgRzzrFzLTwzDNxcQl6TM+dgWSZqnqdHoT1ZufLJBO3UmnO7mU5p2nC32+RdaNGqLWhLIhyzufQapdzoOOhD0VZNxryt57FwYOOGCrHabeYNlNodD7iFNrKcJ6xDOolyvs67SHNfBxy5ZjsLX6R12uv9571FFxT7StMaEgkEwkyIJEH8uhulwfU/p+jt1NLxDXXD6w0HbWK2Rtz6KcHBlXn5aQnoNMl2sIeXoGgkG0izU0Bwk7HGklO07EhRoRSsaBm5r2NW+J8FLsTkUTdcetZVzPgdGztbKyd9KhVdzacsww5vCB6TJJ81dI1QdSfW270wIUOhkFIt1lx3OuXlNiKfn5lhKNvomt9YkVME7UiFDSAeo2TRno3g8ezefPMyBXW9xHS8ejZB61hTOpeu5yB4JUwT97dmsjM3MJidLF9koLkGal6sqVAwIjRqTNdPu8YFC0SxvSqpg8fEvVtLcCffr8J3a35qgRoQQkiuIPh2Xy43icnSDTi6rbne+orNwQNc0jfnK5Qokep1xTUF1/kXjJRj1pB9JtEipENh5KC8jYNdhdIYv4y5R7IytLJFVf4tmMY8k6l+ufNcnPGhOqGjJn3szMvAnxOAZ2Z3J+vLmm+UcnoMe6LtiuSygtQSYZqOLjCvv3l1VT0gYypot8lIL4290bFim6ftL2zQy7Q9yEuueTT/ZyVlX9jcuWvFTsEiep4+S6PQ/pKmGwEe7HRpBlkusFYxYu7Kip6mckTBvbKy1B4fteNc0jtx85WZ+4p7i4g0tRlpOX0iD9qKqq73K92dD1YzjL6IkXC73euAYhxt2w6Y5GTyWjZJ2CfhBoKy/6husvINV8Emgq579xyAyLegNkejLdySSQAmio6v22s97h0jSZmt4aG2oo6vjOgMczS2b0cD0Zm7iA43yZMRMLvXvETSiYWwlxpPbWHMfxHDL6bzOR+GfUMEYVyDqZ/fvvsP9JKuEPBkdCpgYzy0YxjCupie60bHa9wDBkxObXhR7PTmpY0bRihEfzfQ0jrj7QuAlV4PW+iJhuB4GG8QIZPPcrkbiaB7yCuFxN9VPUYb3Av2DB3oa990uDAex36PqTdyxZEvdMm2SBPP2R097S+xHz+R9Qe/2ti0hEhhH/IeK2oXYFaQzLcrkGkJmDedCXkK5e9nij6vsC+ZN2EyDiAZL/AVEztrNekDt//sGK0ynDtKdGIpHbZMcK2666HKERIG/DaKBtQ112h7gl1K6QpaouU9dlcH5L3TTnxnxTC8gkC1s0SDJZUJRbcktKaj6FK4EoGjjwS0VVJ5OOl7jd7p/QNptcqirbf8jWID8apnmZHfQPUWMJ5V+06CAjGpWB7TIxUDYxdMJi2X/k9Jo00ScC0m5iZmYu4aMPs70aKj5Gutf7LumyPQoG+EUQqwN5ulpVlA+y3e7nR/XqVWYH+UPERSgM3pa84B4yTpY3tLZVRVT/wotb43drRNf/IQ1j4p9K5AeDN/D+R2xng4bs80LNytoruSEjLpWH0XYdGTcaFkWpEdyKzdSTsywiJrWVZ+uDTEJyOcVcDR+YDhPTcXmjmiIuQim6PhsJtY7jMMg1WFPV5g5N25tbFfXVOEdcboPkKV2DO6mQFury8trPYE4TxEWoQP/+YbW8XPbLHcOHDzYNI4S0kt0P1nOusR1WV8hGjJxui7kaDzAjxkiXlu1skIi7lifTmTEcJ22NRGSJmLF4yXz5/akRfJLqBrpmbrfYTum+lE5t0NHIyrrUvm6QqLV0ERvGUJSbKVa385CvCnw+n30rqZASTKKv4J2ichsdKKz/Ub3eg+t7SjsVHlmX/U+tDOPsO/r3r4j5/jFq3Q4ltlOh11tUnpHRqdLpTNlsEjMr67zGSiYBZsVBRig01HbWHxTlPEyaIZudzn1tn7hQa0JVQ9YXT8QiC/GCEpyWi5YlEhSYa+zLegPa52hq8oMCHo8s+Bo3aqXyZJWV+lhsVXZhUFX1K9vZaEGhiWa43fuNrcHkgHRBjSVUXjB4ujF0aIW94ERKgTqQLc8aPfhOZ2VV1Q5T/BsKakwo9Go7PthNMUq5HYM4lS6fPQKkc4P81tqpvNLSzuP69FkFsfju1EAWpDerqmRA/c5T3xshUHtl+zudbVK18p+/uPgI7KZrTVV9uC7rQ9XKKJelalJJJkG0qkqaJfYIMglI3+Y/GEYv25l0GJr2J05Xq4bxGebMFFmpJnanZqhzLS9V0GIjRPcsGEbKvrnQ43ndVBSZ/f1vnDcauv51fjA4aleD7naHBkMoPrS7fbknIaXfLAvEIRlljYr5imkGEZOT12/cuDw/HD4PHRyXeVQjQqHXZRnECxCJ0/NCoVXU+H7k+vVUDBDjazral3sS6uObpWvt4wKfbyjnwbh/IOP/Aakmxm7vHnETStqe/OHwK7D2JaTFEDK4gmMjt05XdH2htURzEsE7G2Pf3W5B+qb8m0nnbuRxawSF9NfeBams8W8gLpsqbkKZQ4fKirnSDvSq7nZ3LvB6ZTHWntQMDiMCv/CgpG4ShCjeYwzyamDTpOSb7y4tbYXGeZDj35C4A4esk1rEuYdDVd9EQl34q67vtH/grlATlXcSx4o1mnbRhN69ZZaEBaliom9l+b8T49WztYJp7nnb76fom92G0Z133cplWyTUVDLxMj0a7YrAOAhj/WrOLz8UZwdx/BLK4XDx0v/8zjx3GWTXwj9nTo1qBDVEWsyyTSXI2JR8cyQj4z/SbFDo9XbiGBnwep8bP2DACvt2jVATCfUpIrjfPXPn7jBK0h5vfiO6dmXg2GOTt8iYojS4fq26gvROyTe7y8tfUg3jK1ReiIpWPkcfqYDZt2uEuP9krxvwJRm7ChX3CMd67Kee3LoU+6YjH38D4vHRWOjEg4+dQGTvsZ17Cu7EVn3Avk4apEKlmublXJ5C/spehygjc7WiqtMNw5i+zumcHu8KLHFLqAn9+4vdJO0R+/DSR0xVfRkiycYzsmD6zckkk4APrPWaRQ0VqfhmGbCIoGgGeZ7lGKZo2iDeK5M/vjQNY6SqKG/uo+txjyKticpzyLy7ql9/7WqY5pkcsurZCVj/HSlFU2R7B38oNDxZU6v52HpbN6G+oKbgm43MzMcgziJI9BnHN6auz0NIyAZDMk/QWiCDfI57Afxa6clq+Bcv7mpGIqdTlE7npbKviyzzczUEeyoWInGwVh3esGET0jGZhn/agMz9GQN5b76XpE0eUHcXYr48ZWsaWVL6WV7uxISRBcea4f8r+Smr6sQVjxoTSpYf5sky9VsmfR4pfrxY9OvHPOytVobxTE3GINcE+aGQTHcfFHM1bpDGb0GoM21nUiGjR5BMYqudw7EIbXB9bTforjGhqAHIulCyY9FmmP0uhvnbmts9I9C79y92kKQBwzxtVvVNAa5HMtRpc8g/gj8cvhV1dzVS8D3ydLoRaxq6n+MQ/J5SdX1MvCvXVaNGNpQAI+0yyDTkl/Xr9y7w+c4r8npfSgWZBFQE3rYvGzWQ+CaFVXYsTzaWoto28bqbOT7gxa9QYKUi8DnnawxNmxcLFj9qLKGqMTYYPEBTlHGQqxeRmdXJ6RydisFgSKllRPpQ29lYMQ/pJB2zKcH4Tz7Zq6qqaijkGk5enoS0ivUhmuZchEaNNh6vsYQS+L/7LgNJJbtOjaQk7cv17T/ouqwKnHyY5rP2VeOFYST9G2Udhdzi4vMxYQq2RqPnRl0uWQFmxFqncy9IdRzHJIiVZwePG7WSUNKSystKeam/0OcrkIFY6NxAlcPRaaLXu95e4LUz92q1X8juIGulu0xTRoxKraTRAYn/c2td75ysio3ASkOH430y/yjbS9SszulJtUOH2+uyrUqtJFQkEvmWGERUVbXmbCnZ2TLLdLPbNIuoiU11VVWtwh2WXmy5n0gIYfn4Z2xnY8Rfk0kmAQXyUTRLF/JwpGGavRAGI/GW1ZOvM9eteyUWqnaotQ2FlHqdP2cqTuc5ZjR6Afp3HO79rZumWUJEHyzKyZHdqhKOosWLO6LzZYuLzJhPo8FGvqubLElouxMOaSIwdP07aneXbL/3jCzeZmRlvUAenkdeHrOrBVzjQa0klAVFeRTxfLIRjf7AtSzY2h7J8byi614MOU+yyCTI7d37R979F9vZaED6TUgmmQSGYciy4Kqmqju0M8n+PGokcrvlqMNY9loTCgZ/RMQWISZ/IQKjVU3rhM10qaGqOjWxB7Gr3kCKTRz78cdJ2ZJVbd58AjkgqrVxwDSXq9nZCd+pfSeYprWar+FwDLHc26FK08SOki6fNZZHLVAXCWUqM2f6qBl0K8jJmeTIyNiM/fQEJCvhuA2xeTpku1vNyFgyZv78hE8HCvTsuQUpdZ3tbOjQFVW9UnbatN1JQ/s2beaQbiuxoSbnFxdfJ6rOumGailNR/Nzb7Cgre9fyqwXI+8QAifQsJLsUsS2idPThXu/cT4PBA2H7y0Qy83CP54gRimKVgESC9z7Ge6+1nQ0SpNl4pHuu7UwK/OHwgXok0qpowIDF/lCoLzbuDAr8XuTNf7ldSiQOxN0T2+qGwpycWo8cqb2E2g7Sv0emXkKkPkRsDyJxZgt5ZG84GHslx6HLwuGkLEqmdOhwGxlSoz3d0gnEfY5aUTHOdiYNvOf/qECVYob8xaFpn6u63hMt8gCSSueQbVdkh4wr60ImQUIIhT6WGS+KqaqFO4ltXV8pJ0qEDMZLOKTNBLtNdqGUktawYJrfqE7nuanYsBJjfBTvkz0Eb6EitdhwOrthB99JBaozposT0+VArp+2g9caCSGUQ2p6Atmd6jcg4jISUHSrDNBLCsZ7PKsogcM4UtKnmAgQ1zWKYQxJ1fa6aIvla51Omc5fAKlkAuk8qTTJsKBELs2UEBuKxFEwyD/lYRvKNm0a9sDJJ5dJRH/esOEOVGEB/isVTesZqapq49K0vQJe7xL7rwmFv6TEgw0gBmV6b28GmSjJxwd8PtkOI6XIKy7OpQIgzQMiBA4nMssMl+vcoj59llsB6oiEEErgDwZ96OSPSKxfeehyrg/n3JZbK9DRwyTx8kKh9/A7EvGatC3vc4PBI3mHGJz72V7pBdSc4nINqcs2rPGCQi79q7JJZjnv/ZXCnUXa7Mf1yI0bNkxr3b79ePLmDsJMJk/utv5URyRG5QEIE4RERxPpJZx7EOn/cowjwkcImQoXLerC9YkQLuH9e9ujyOf7Nx/l5bIk5pM+IGPnIKVzUkEmAXbrN+TBJ5BoDQVM2ux+IQ5BbKWpU4YNqyQ/dPLj54hhyLzKhIB3JRfSERlp1mxrZkXFmaqqTkVZXyRjqOzbSYOtcmUbthshedK/8w8gzSWTlPJyf33uGC8jXiHUr4Ve73B/cfHRVKJmkR8Xkh/T7CB1RsIk1K7AB9znMs11WVu3rlMV5Xq8Kls1a1Y9SE6RjYjs64Tjlu7dKwt9vpuxF2TG8zcx33oANgqZOAiVMrY+yWRBdmF1OIZhenyFFnkX6fRqIskkSBqhxi5YIBv3yT5wMmNCdHl3PmDTqCOPLL/jvfeaQ7ZXzGj0a0pKXPuw1Ray3SmSoSfvHivvt72TDlElZOCta5zO3kiEYts7qfDPnp2dHwzOkF2lbK8dUFVZeTuVlpe5zIDk/yjPyEj4ViBJUwV81HDY+k/E6hmF/fq9LWOo8J7LCx/kY4ajhaQ7ZnorXT832cM1qnHvp5+2qaiouJH330A8OtjeiUWsf3FKRTT6+H0DB/4a80wNZLiQOxr9grTdC/vocmzXlO8BnTRC3bZwYWYLVf2MzJOdPoVAJqWnkFJb3cUwefmKFWNeHTEi4d0xfwQZrahv2SIbcsvsnZNJhDoNg0EaSYfrDIeqvqCWlc2sT9WWW1zcg+/6kEtZRUUWuqhzY2VNkDRCCXIXLOitaJqshnY/OvtHyDSFF+oOXb+qoH//F+1g9Qp/aWmWoesyp3Aw5O/L+TAIsh+Zssu0IYw0Av7ANy3je0pwz23fps18sdliIeofecXFZ2M7vmbH9QZU7uOxO8lHUgklyC8ulgFbMm1dZiz+gBo8M+D1lk4zTW0Z+VPfe5rsCjI9O5qZuS+Z0tqMRDJVp9Mk3mix6MbNmzatkSq3HTTtkLtoUQ8lEpHBcdI8cygZ3Ani34KWmGIFSDKSTigBBvjd6IWB0crKqyccffRqVN8ovGWoRIRMm6xMnz5Jmv/9Cxb0NDVtBvcmIar/av25CbuENeHWNK9RsrP9MpTH8kOVG1u2LKXsrtm4fv2Jbdu02Rcb9iNudaVQn1Lo8cyUcMlEUpsNqkHpEIKcKmTKC4dPpcRM5gNlqZoZEM1vDh36vCSQ4XS+h/++HClp+GvI0E3TRzrebpaVyfh6SzAYZWWyobcsDz1FpOjnq1ZJBUFGYkiDZo32bKktUkKo7YHtIe1CDtPpHFbo811k6vrxfOxwwzQ/g1z7kjJXovPfswI34XehzZz5Aukm0vzcvFDI2oxS/V+zyK1jg8HjenTu/CphTlR0fUhdFrOvCVJOKBC0fquqrMVA1ZYtl0Oi1ZQsN2S7DWn2vHXfBgbm9ajMPWKPl90BCb4P0n1o9brhYiKoun4xl99xTOL+YKv7y+GQWl1/LVbTk8miQ2RHVs4pQUpsqB1gmgoJ8xTkOR+pNFJV1bvw9ZIQASTTTgPNINP3nH6GaH1jPnsmsDufQsVdSTptIA1fpCbzltPhkE0wpea8P/bUGl3TjprQr98ayHUy7i4U0repANV6fHhtkHpCAT5Whrs8zAdbO1qRSA9DJlk0dCfkBYMbCSdtWSnZMTRdQc2ztZGVdSuJdzHpcaDtLR3Aj6JmPoVsj5Ou89c6ncfFu9pcMlAvhKoGZLmTxGkT8HhyOcOrnUEY6Yf7AXvLmmPvX7jQQ81ldJWiXCWTPsWvscEiT2bmnZDkTCR5CxJmrup0jpE9duS+PURHTAeZuT1Z/LCj/o7fxRDskqJ6aCGvRn3YUNtAYtyP5JFlFXcgk7QDIcHySKS/kUgV3LdWxRN/Q1WnEvgUbIRGORVdJhNAJhmqez3SqARSLef6QiMaDckCJRIGt4wBz1Czs2U+pNiZsqXsKRzzNadTDPV6Q70S6veAaJdJnDLS08O5LaK8t7+4+HwjIyOfhJQJEffKsN9R8+e3oLSek19cfFmyd3JIFUzDeIbvznIpypEUuEspcCcjda7ku/ehEFndKEit1XI2ysqmU/BeJj3+xf0XOmracakaUvx7IO7pByTTWk6bv1ix4pB9evVyttmwYTRSaQwJJ2PWv/hl/fqj2rZvL0sfv4F7WycvYd7Xdf1ye4HZBgGM7QuI958gT4GMHXNTAYFAj6O2dphzCHFe53SWout9HJWVnyLFnsN9Iccaq3ack1OnNQkShbSUUIh6GZ/ervt++3Wd0r17ZU+vt4gSuAx/WfDsqratWrUyDOMdMqIlJLu8mWHsQ/hTSdjDNVWdJR3T9pPSHnzDcOI+LjccPriZvUgq37HTwremogiBZNG1HOl8hoB/xq7KVmfO3D9dyCRIT5WnqjJT5lvV5foEaXXt0lBIBtX3hlSPYsAv1J3OO7huB7luLfB4nh2bk7OW6rGI/Vs5DmmhqrJWpBivl4sdJtf1CRlWMvF3VqJByr4oRhEkukKq+Li/xX2aDLWxg1jgW2NDYRRl2zQ11Ft5fWwmvjukJaHEPlqjaTkksmyp9RCJOImEXlkRiYyR+0T6TNw/OWLdDv+DYchebwJrnzlK/k08w1oDCTvrPmnT8i9YYO2VPGn58hZyTgXc0ei/yqPR2bZzBxzh80mvwFriOvKJ0lIX5wehV6uK8vKnxS1hqIw4kci3cFnhdrvr1ej+IxD/9IaoAiKZh13x5HivV1YBFhurHL8FGKw7zEZGIslC7dLSfr0Sjb5uaNoayHi/SAHCf0JGcVsZgFiQ7UT+hd+h3LsB0r0ayMmZH3tK7eAPBs9ALV3GZQ+eWcZ73mml6xNl8CB2kkihCxXDOID3SEOt46YZM5q1adfuauJxrcRD/PjP2Z9///3bPbp0eQfnMO5JAVlAfAdwPpBwlxb4fDLiMm2RnjbUdpA+qEKP58/VZLJgml+T2AdJybV9rFIsKpDM1BVNm25q2vFkkAIRZ+F/P5f8BShKlDCncxhVlZWydM512CUylWgb5Fl5weCivHA4ri3bCDsRMr3JZQdqaa/xLun4zt+kqv/0mzLyxWEtPoEqt1Y8keaPNm3byhCT+/iWD4jYEIkP/71SBhwqzZufib/VawDZT+B5paqq9kl3MgkgfcMDqkv69l4hE17GgMh16LqBgTqJjzkPv8cwWK9Hij1DpkgN6mII9Sr+fyNjrpRaEgSaBrH+i4QbjPT4GDIcoZrmZRFF+YFMXUX1/BT+I1X0mwmz23FE9ghJ2Vp1hjJjxmnVNo3YbsTnComTIxqdYzidq4nPv4jb6f5QaATxkvjfhPsRCc83ieo7XleUA0Tli19DRNpLqF2BTH6VzLmEy5PI/G81p/N7K+MM4221oiK2aJbs3+dwBMnoAJkXdGiaNXULKSEDzrpx+YG4uSeTT1tDqtcQdyUuVV1jk2lFuzZtnpQwuwP/lSEjIv6e3t5AVg2jSM54nBUYMGAdkkYGvB0nqg6/WNeIPRlVNmaCXDKNXnOa5sni11DRIAklQPxPRSp1wS6RrUGuJU8HUH0+gyr1VktqyPKMitKVez1QF7cYuo6X5KG1h4moEotQwBoqAyFujxiGbIxkEQFyBn47rBdp9gaSZMEOzRKqmmGdDWOHhU7FVuKZG3ipNVWM63d5d3brdu0Gqpom71zBvdFSUdBUVbpUcggTKI9E0qYJoDZosIQSWNXmnJx3INcT0pxgewtprO07yLCuXE+VbSaQOhahwLEiDQ7zeq2ZxerMmYvJyHVcDnL7fD9x7yyul/f8TX8Y/goPHsi5b4aitLS9pWU7NhhQUXZYRtC2ndyEj83oUZTYaEnTHCrxVtzuY7DvpnD/HeJ2yhcrVx4goy1SPVMm0WjQhPo9qFTTOT1C5n0Ii6w5+9WEgjyy5oK1fpW4LTWFtMJvkCMcPofzoQTN/e3iaPhh7St9eM7h9+bkSEu+Ba1Fi4/4v2xqdN2EUKid7e3gWefzrGyOWeL8YsUKGZO0ludY48ACvXt/X+Tz3YINdXPA6323Pmb/JAN8754B/8KFBxmatoAP3pvjKjJxW4Nnfjh8MaT4O9Liv9z7ERvNC0HgXnxAbV3F6Un+sJLnvAlpOnAt5FzWvGXLQXf36GFJHen4det6mTTEirsxYo8hlODcadO0Q7t06ebweP6z/Wwb/5Ilextbt4pN0wwiHI/U2GUj5O4gY+Wx527AuJdFQdZiW00v27jxUVnayA7ShD0JMlqBqn6O7WxCE5rQhCY0oQlNaEITmtCEJjShCU1oQiLhcPw/KjadMLQFDIoAAAAASUVORK5CYII=;" parent="byS9DmiykSNvir3lJ_Dd-1" vertex="1">
          <mxGeometry x="260" y="240" width="61" height="60" as="geometry" />
        </mxCell>
        <mxCell id="byS9DmiykSNvir3lJ_Dd-17" style="edgeStyle=orthogonalEdgeStyle;rounded=0;orthogonalLoop=1;jettySize=auto;html=1;entryX=0;entryY=0.5;entryDx=0;entryDy=0;labelBackgroundColor=none;fontColor=default;" parent="byS9DmiykSNvir3lJ_Dd-1" source="byS9DmiykSNvir3lJ_Dd-14" target="byS9DmiykSNvir3lJ_Dd-16" edge="1">
          <mxGeometry relative="1" as="geometry" />
        </mxCell>
        <mxCell id="byS9DmiykSNvir3lJ_Dd-23" style="edgeStyle=orthogonalEdgeStyle;rounded=0;orthogonalLoop=1;jettySize=auto;html=1;labelBackgroundColor=none;fontColor=default;" parent="byS9DmiykSNvir3lJ_Dd-1" source="byS9DmiykSNvir3lJ_Dd-24" target="byS9DmiykSNvir3lJ_Dd-25" edge="1">
          <mxGeometry relative="1" as="geometry" />
        </mxCell>
        <mxCell id="WwzYHRUaA7lzdSAOnGl1-1" style="edgeStyle=orthogonalEdgeStyle;rounded=0;orthogonalLoop=1;jettySize=auto;html=1;fontColor=default;labelBackgroundColor=none;" edge="1" parent="byS9DmiykSNvir3lJ_Dd-1" source="byS9DmiykSNvir3lJ_Dd-24" target="byS9DmiykSNvir3lJ_Dd-16">
          <mxGeometry relative="1" as="geometry" />
        </mxCell>
        <mxCell id="byS9DmiykSNvir3lJ_Dd-24" value="INTEGRACION" style="aspect=fixed;perimeter=ellipsePerimeter;html=1;align=center;shadow=0;dashed=0;image;image=img/lib/ibm/data/device_registry.svg;labelBackgroundColor=none;spacingTop=3;" parent="byS9DmiykSNvir3lJ_Dd-1" vertex="1">
          <mxGeometry x="450" y="240" width="60" height="60" as="geometry" />
        </mxCell>
        <mxCell id="WwzYHRUaA7lzdSAOnGl1-2" style="edgeStyle=orthogonalEdgeStyle;rounded=0;orthogonalLoop=1;jettySize=auto;html=1;fontColor=default;labelBackgroundColor=none;" edge="1" parent="byS9DmiykSNvir3lJ_Dd-1" source="byS9DmiykSNvir3lJ_Dd-25" target="byS9DmiykSNvir3lJ_Dd-24">
          <mxGeometry relative="1" as="geometry" />
        </mxCell>
        <mxCell id="byS9DmiykSNvir3lJ_Dd-25" value="BD SIESA" style="aspect=fixed;perimeter=ellipsePerimeter;html=1;align=center;shadow=0;dashed=0;image;image=img/lib/ibm/data/data_services.svg;labelBackgroundColor=none;spacingTop=3;" parent="byS9DmiykSNvir3lJ_Dd-1" vertex="1">
          <mxGeometry x="650" y="240" width="60" height="60" as="geometry" />
        </mxCell>
        <mxCell id="byS9DmiykSNvir3lJ_Dd-30" value="&lt;h1&gt;&lt;/h1&gt;&lt;h5&gt;&lt;/h5&gt;&lt;h6&gt;&lt;/h6&gt;&lt;h3&gt;&lt;ul&gt;&lt;li&gt;Consulta&amp;nbsp; de precio (Tiendas).&lt;/li&gt;&lt;li&gt;Agenda y Ficha (Centro de bienestar)&lt;/li&gt;&lt;li&gt;Informes proveedores&lt;/li&gt;&lt;/ul&gt;&lt;/h3&gt;" style="text;html=1;strokeColor=none;fillColor=none;spacing=5;spacingTop=-20;whiteSpace=wrap;overflow=hidden;rounded=0;align=left;labelBackgroundColor=none;" parent="byS9DmiykSNvir3lJ_Dd-1" vertex="1">
          <mxGeometry x="120" y="50" width="190" height="120" as="geometry" />
        </mxCell>
      </root>
    </mxGraphModel>
  </diagram>
</mxfile>
